<?xml version="1.0" encoding="UTF-8"?>
<!DOCTYPE svg PUBLIC "-//W3C//DTD SVG 1.1//EN" "http://www.w3.org/Graphics/SVG/1.1/DTD/svg11.dtd">
<svg xmlns="http://www.w3.org/2000/svg" version="1.1" width="192px" height="145px" style="shape-rendering:geometricPrecision; text-rendering:geometricPrecision; image-rendering:optimizeQuality; fill-rule:evenodd; clip-rule:evenodd" xmlns:xlink="http://www.w3.org/1999/xlink">
<g><path style="opacity:0.66" fill="#000000" d="M 77.5,67.5 C 76.838,69.3035 76.5046,71.3035 76.5,73.5C 77.0132,84.1756 77.6798,94.8423 78.5,105.5C 81.717,107.605 83.0503,110.605 82.5,114.5C 82.3902,118.106 81.7235,121.606 80.5,125C 81.205,127.707 82.705,129.874 85,131.5C 85.49,132.793 85.6567,134.127 85.5,135.5C 82.4545,135.658 79.6212,134.991 77,133.5C 74.9289,139.137 72.0956,139.637 68.5,135C 69.6226,133.956 70.9559,133.29 72.5,133C 69.4466,131.419 68.78,129.086 70.5,126C 72.9563,125.054 74.9563,125.554 76.5,127.5C 75.1886,128.258 74.6886,129.258 75,130.5C 77.015,131.842 79.1817,132.342 81.5,132C 79.5559,130.278 78.5559,128.111 78.5,125.5C 80.0725,120.59 80.5725,115.59 80,110.5C 79.0853,109.672 78.4186,108.672 78,107.5C 77.8253,110.157 77.9919,112.824 78.5,115.5C 75.5448,116.159 72.5448,116.492 69.5,116.5C 70.3563,105.19 70.6896,93.8565 70.5,82.5C 65.0878,82.3967 60.0878,80.8967 55.5,78C 50.3011,71.7676 45.4678,65.2676 41,58.5C 40.5048,51.7949 40.5048,45.1283 41,38.5C 37.6463,43.8947 35.4796,49.728 34.5,56C 40.0908,75.9408 46.7575,95.4408 54.5,114.5C 51.7341,116.129 48.7341,116.795 45.5,116.5C 43.2552,110.053 40.2552,103.886 36.5,98C 37.635,97.2506 38.635,97.4173 39.5,98.5C 40.3333,100.167 41.1667,101.833 42,103.5C 42.631,100.416 41.7976,97.7497 39.5,95.5C 31.8538,97.3961 24.1872,99.2294 16.5,101C 14.4728,105.947 13.4728,111.113 13.5,116.5C 11.1432,116.663 8.80982,116.497 6.5,116C 5.48444,115.481 4.81777,114.647 4.5,113.5C 11.9095,92.8709 18.2428,71.8709 23.5,50.5C 26.7766,50.2161 29.9433,50.5495 33,51.5C 36.6088,38.2406 43.7755,27.4073 54.5,19C 61.4148,15.195 63.9148,17.0284 62,24.5C 58.1537,27.2305 53.9871,29.3972 49.5,31C 43.2595,38.4001 41.0929,46.9001 43,56.5C 47.1667,62.6667 51.3333,68.8333 55.5,75C 60.0462,78.464 65.0462,79.964 70.5,79.5C 67.5064,77.3383 65.0064,74.6717 63,71.5C 63.314,68.4541 63.1474,65.4541 62.5,62.5C 51.848,60.754 50.5146,55.9206 58.5,48C 62.6237,46.9443 66.2904,47.7776 69.5,50.5C 72.8291,46.7065 76.4957,43.2065 80.5,40C 86.1927,38.6398 91.6927,36.8064 97,34.5C 96.4745,31.3057 94.4745,29.3057 91,28.5C 88.8439,29.9851 86.6772,31.4851 84.5,33C 79.9727,33.734 75.6394,33.0673 71.5,31C 67.3689,26.974 67.7023,23.3073 72.5,20C 77.4068,18.4284 82.4068,17.2618 87.5,16.5C 87.7093,15.914 88.0426,15.414 88.5,15C 84.5753,15.5184 80.5753,15.5184 76.5,15C 73.141,12.9658 72.8076,10.6324 75.5,8C 109.455,-2.57082 136.288,6.92918 156,36.5C 158.956,40.5075 160.123,44.8409 159.5,49.5C 157.758,45.6823 155.758,42.0157 153.5,38.5C 152.231,43.3478 149.731,44.3478 146,41.5C 142.842,43.9571 140.009,46.7905 137.5,50C 139.384,50.2163 141.051,50.883 142.5,52C 139.167,56.6667 135.833,61.3333 132.5,66C 133.344,75.0044 137.511,77.1711 145,72.5C 146.862,68.5811 148.529,64.5811 150,60.5C 152.045,59.1131 154.212,57.9464 156.5,57C 155.577,54.9592 155.244,52.7925 155.5,50.5C 166.167,50.5 176.833,50.5 187.5,50.5C 187.5,52.1667 187.5,53.8333 187.5,55.5C 179.5,55.5 171.5,55.5 163.5,55.5C 163.309,63.8403 162.976,72.1737 162.5,80.5C 169.833,80.5 177.167,80.5 184.5,80.5C 184.714,82.1439 184.38,83.6439 183.5,85C 176.811,85.6095 170.144,85.4428 163.5,84.5C 162.661,93.1519 162.828,101.819 164,110.5C 172.432,111.42 180.932,111.42 189.5,110.5C 189.739,112.467 189.406,114.301 188.5,116C 177.184,115.779 165.851,115.612 154.5,115.5C 155.693,106.786 156.36,98.1196 156.5,89.5C 155.511,85.8549 154.011,85.8549 152,89.5C 151.333,90.8333 150.667,92.1667 150,93.5C 149.255,100.63 147.922,107.63 146,114.5C 144.542,116.96 142.709,119.127 140.5,121C 141.357,121.689 142.023,122.522 142.5,123.5C 141.557,128.1 141.223,132.767 141.5,137.5C 140.5,137.5 139.5,137.5 138.5,137.5C 138.826,133.116 138.492,128.783 137.5,124.5C 136.675,128.122 136.175,131.789 136,135.5C 134.097,141.53 130.263,143.03 124.5,140C 124.279,138.201 123.946,136.368 123.5,134.5C 122.675,133.614 121.675,133.281 120.5,133.5C 120.5,134.833 120.5,136.167 120.5,137.5C 119.5,137.5 118.5,137.5 117.5,137.5C 117.649,136.448 117.483,135.448 117,134.5C 115.196,137.647 112.696,138.313 109.5,136.5C 103.386,139.774 99.3863,138.108 97.5,131.5C 97.9894,125.918 100.989,123.751 106.5,125C 107.91,125.368 108.91,126.201 109.5,127.5C 107.684,129.817 105.684,131.984 103.5,134C 105.047,134.333 106.38,133.833 107.5,132.5C 108.736,133.246 110.07,133.579 111.5,133.5C 111.5,128.833 111.5,124.167 111.5,119.5C 112.833,119.5 114.167,119.5 115.5,119.5C 115.174,123.884 115.508,128.217 116.5,132.5C 117.787,129.291 117.787,126.125 116.5,123C 117.905,121.731 119.571,121.231 121.5,121.5C 120.624,124.799 120.457,128.132 121,131.5C 122.792,127.872 125.625,125.539 129.5,124.5C 130.554,124.68 131.554,125.013 132.5,125.5C 143.844,117.135 149.011,105.802 148,91.5C 149.459,88.2436 151.626,85.5769 154.5,83.5C 155.833,76.1667 155.833,68.8333 154.5,61.5C 153.914,61.2907 153.414,60.9574 153,60.5C 151.194,64.918 149.194,69.2514 147,73.5C 143.491,77.6127 139.324,78.446 134.5,76C 132.396,73.9576 131.229,71.4576 131,68.5C 128.167,74.1697 124.834,79.503 121,84.5C 120.409,94.8868 120.409,105.22 121,115.5C 118.281,116.444 115.448,116.777 112.5,116.5C 112.5,114.833 112.5,113.167 112.5,111.5C 107.723,112.149 103.223,113.482 99,115.5C 96.6136,119.291 95.9469,123.291 97,127.5C 93.9604,130.681 94.1271,133.847 97.5,137C 96.1667,137.667 94.8333,137.667 93.5,137C 90.5767,131.161 89.2434,131.327 89.5,137.5C 88.5,137.5 87.5,137.5 86.5,137.5C 86.5,131.5 86.5,125.5 86.5,119.5C 89.1194,119.232 91.6194,119.565 94,120.5C 95.2467,117.671 96.7467,115.005 98.5,112.5C 103.525,111.163 108.525,109.83 113.5,108.5C 113.666,103.489 113.499,98.4889 113,93.5C 108.915,91.8048 104.748,90.3048 100.5,89C 96.3489,82.2443 90.3489,77.911 82.5,76C 79.2882,73.9806 77.6216,71.1473 77.5,67.5 Z M 138.5,44.5 C 137.787,47.2398 136.12,49.2398 133.5,50.5C 129.396,60.5878 124.062,69.9211 117.5,78.5C 111.485,69.801 105.985,60.801 101,51.5C 98,50.1667 95,50.1667 92,51.5C 98.16,61.0491 104.493,70.7158 111,80.5C 113.124,83.6669 113.624,87.0003 112.5,90.5C 109.065,89.6326 105.731,88.466 102.5,87C 99.931,84.5206 97.5977,81.854 95.5,79C 92.1667,77.6667 88.8333,76.3333 85.5,75C 82.7232,72.608 80.0565,70.108 77.5,67.5C 77.447,61.8044 77.7803,56.1377 78.5,50.5C 76.8008,50.6602 75.1341,50.4935 73.5,50C 76.535,46.6298 79.8683,43.6298 83.5,41C 87.9294,40.3187 92.2627,39.3187 96.5,38C 100.072,35.3742 100.405,32.3742 97.5,29C 95.4874,27.7428 93.3207,26.9095 91,26.5C 87.4493,27.7138 84.116,29.3804 81,31.5C 77.6332,30.867 74.4666,29.7003 71.5,28C 70.4829,26.9505 70.3162,25.7839 71,24.5C 77.1854,18.8666 83.3521,18.5333 89.5,23.5C 93.4987,21.9313 93.4987,20.098 89.5,18C 90.6667,16.8333 91.8333,15.6667 93,14.5C 94.4545,17.9121 96.2879,21.0788 98.5,24C 107.852,24.8099 110.352,20.9765 106,12.5C 98.8248,5.72392 91.9915,5.89059 85.5,13C 82.208,13.9357 79.208,13.4357 76.5,11.5C 76.9767,10.5224 77.6433,9.68909 78.5,9C 89.6906,5.01619 101.024,4.51619 112.5,7.5C 117.955,10.2907 121.622,14.624 123.5,20.5C 119.629,23.5763 117.962,27.5763 118.5,32.5C 120.199,32.6602 121.866,32.4935 123.5,32C 125.506,29.1583 126.839,25.9916 127.5,22.5C 130.151,20.9966 131.484,21.8299 131.5,25C 128.776,30.3588 128.276,35.8588 130,41.5C 131.784,45.425 134.617,46.425 138.5,44.5 Z M 90.5,12.5 C 93.2323,9.10121 96.5656,8.60121 100.5,11C 102,12.5 103.5,14 105,15.5C 105.667,17.5 105.667,19.5 105,21.5C 103.612,22.5536 102.112,22.7203 100.5,22C 97.9918,19.3104 95.9918,16.3104 94.5,13C 93.2068,12.51 91.8734,12.3433 90.5,12.5 Z M 119.5,9.5 C 130.267,13.1019 139.267,19.2685 146.5,28C 144.182,28.3423 142.015,27.8423 140,26.5C 139,27.1667 138,27.8333 137,28.5C 136.454,31.8546 136.621,35.1879 137.5,38.5C 136.987,43.8704 135.153,44.537 132,40.5C 130.58,36.5134 130.913,32.5134 133,28.5C 135.027,21.5372 132.694,18.8705 126,20.5C 124.828,16.1417 122.661,12.475 119.5,9.5 Z M 49.5,27.5 C 52.0716,23.2528 55.7382,20.5862 60.5,19.5C 60.6168,21.4835 59.9501,23.1502 58.5,24.5C 55.6862,26.1046 52.6862,27.1046 49.5,27.5 Z M 123.5,25.5 C 123.617,27.4835 122.95,29.1502 121.5,30.5C 120.177,28.146 120.843,26.4793 123.5,25.5 Z M 139.5,43.5 C 139.457,39.1071 139.291,34.7738 139,30.5C 140.881,29.6456 142.714,29.9789 144.5,31.5C 145.451,30.6744 146.451,30.5078 147.5,31C 150.723,34.1123 151.223,37.6123 149,41.5C 148.196,40.1955 147.029,39.5288 145.5,39.5C 143.235,40.4316 141.235,41.7649 139.5,43.5 Z M 60.5,49.5 C 63.5879,49.3773 66.2546,50.3773 68.5,52.5C 69.4338,60.193 69.9338,67.8597 70,75.5C 67.7911,73.6266 65.9578,71.46 64.5,69C 65.6023,66.5991 65.769,64.0991 65,61.5C 61.9512,60.061 58.7846,58.8943 55.5,58C 56.1585,54.5227 57.8252,51.6894 60.5,49.5 Z M 28.5,61.5 C 31.042,65.1447 31.7087,69.1447 30.5,73.5C 31.0508,79.8748 32.3842,86.0414 34.5,92C 29.685,93.2454 24.8517,94.4121 20,95.5C 19.1667,95.1667 18.3333,94.8333 17.5,94.5C 20.5759,83.2724 24.2425,72.2724 28.5,61.5 Z M 36.5,91.5 C 34.3791,86.3545 33.5458,81.0212 34,75.5C 34.9985,80.6611 36.4985,85.6611 38.5,90.5C 38.0431,91.2975 37.3764,91.6309 36.5,91.5 Z M 89.5,122.5 C 93.0131,123.028 94.0131,124.862 92.5,128C 91.552,128.483 90.552,128.649 89.5,128.5C 89.5,126.5 89.5,124.5 89.5,122.5 Z M 127.5,128.5 C 132.159,128.015 133.492,129.848 131.5,134C 126.728,134.81 125.395,132.977 127.5,128.5 Z"/></g>
<g><path style="opacity:0.699" fill="#000000" d="M 20.5,37.5 C 21.8734,37.3433 23.2068,37.51 24.5,38C 27.3753,41.0441 30.3753,43.8774 33.5,46.5C 32.2643,47.3567 30.931,48.0234 29.5,48.5C 24.9551,45.734 20.6218,42.734 16.5,39.5C 17.9492,38.8281 19.2825,38.1614 20.5,37.5 Z"/></g>
<g><path style="opacity:0.688" fill="#000000" d="M 176.5,37.5 C 179.321,37.5387 181.988,38.2054 184.5,39.5C 180.421,43.0702 175.921,46.0702 171,48.5C 169.5,48 168,47.5 166.5,47C 170.334,44.3318 173.667,41.1652 176.5,37.5 Z"/></g>
<g><path style="opacity:0.59" fill="#000000" d="M 51.5,117.5 C 52.552,117.351 53.552,117.517 54.5,118C 58.6667,121.5 62.8333,125 67,128.5C 68.0801,133.672 66.0801,137.005 61,138.5C 54.8522,137.287 52.8522,133.62 55,127.5C 55.9025,126.299 57.0692,125.465 58.5,125C 55.5724,122.91 53.2391,120.41 51.5,117.5 Z M 58.5,128.5 C 63.1585,128.015 64.4919,129.848 62.5,134C 58.2662,134.267 56.9329,132.434 58.5,128.5 Z"/></g>
<g><path style="opacity:0.663" fill="#000000" d="M 8.5,119.5 C 9.4959,119.414 10.3292,119.748 11,120.5C 12.9442,126.165 14.7776,131.832 16.5,137.5C 13.3443,137.471 11.6777,135.804 11.5,132.5C 10.1667,131.167 8.83333,131.167 7.5,132.5C 7.32235,135.804 5.65568,137.471 2.5,137.5C 3.89911,131.303 5.89911,125.303 8.5,119.5 Z"/></g>
<g><path style="opacity:0.714" fill="#000000" d="M 27.5,121.5 C 28.5,121.5 29.5,121.5 30.5,121.5C 30.4486,123.57 31.1153,125.403 32.5,127C 30.7727,130.276 30.106,133.776 30.5,137.5C 29.5,137.5 28.5,137.5 27.5,137.5C 27.894,133.776 27.2273,130.276 25.5,127C 26.8847,125.403 27.5514,123.57 27.5,121.5 Z"/></g>
<g><path style="opacity:0.65" fill="#000000" d="M 33.5,121.5 C 34.8333,121.5 36.1667,121.5 37.5,121.5C 37.2499,126.666 37.2499,132 37.5,137.5C 36.5,137.5 35.5,137.5 34.5,137.5C 34.6757,132.12 34.3424,126.787 33.5,121.5 Z"/></g>
<g><path style="opacity:0.652" fill="#000000" d="M 43.5,124.5 C 46.5176,124.704 49.5176,125.037 52.5,125.5C 52.6655,129.514 52.4988,133.514 52,137.5C 48.0838,142.565 43.9171,142.732 39.5,138C 41.6574,136.915 41.8241,135.749 40,134.5C 38.7563,130.191 39.9229,126.858 43.5,124.5 Z M 43.5,128.5 C 47.0289,127.889 48.8622,129.223 49,132.5C 46.4262,135.259 44.2595,134.926 42.5,131.5C 43.1272,130.583 43.4606,129.583 43.5,128.5 Z"/></g>
<g><path style="opacity:0.624" fill="#000000" d="M 147.5,124.5 C 155.28,124.383 157.946,128.049 155.5,135.5C 151.289,139.597 147.455,139.264 144,134.5C 142.756,130.191 143.923,126.858 147.5,124.5 Z M 148.5,128.5 C 153.158,128.653 154.158,130.486 151.5,134C 146.722,134.073 145.722,132.24 148.5,128.5 Z"/></g>
<g><path style="opacity:0.642" fill="#000000" d="M 171.5,124.5 C 179.018,124.887 181.518,128.554 179,135.5C 173.158,139.72 168.991,138.387 166.5,131.5C 167.065,128.284 168.732,125.951 171.5,124.5 Z M 171.5,128.5 C 176.159,128.015 177.492,129.848 175.5,134C 170.728,134.81 169.395,132.977 171.5,128.5 Z"/></g>
<g><path style="opacity:0.555" fill="#000000" d="M 17.5,125.5 C 19.8333,125.5 22.1667,125.5 24.5,125.5C 24.5391,127.359 23.7058,128.692 22,129.5C 21.5026,132.146 21.3359,134.813 21.5,137.5C 20.1667,137.5 18.8333,137.5 17.5,137.5C 17.5,133.5 17.5,129.5 17.5,125.5 Z"/></g>
<g><path style="opacity:0.605" fill="#000000" d="M 159.5,125.5 C 161.977,125.051 163.977,125.717 165.5,127.5C 163.144,128.654 162.977,129.987 165,131.5C 166.316,135.128 165.149,137.461 161.5,138.5C 156.587,136.193 156.587,134.359 161.5,133C 158.554,131.047 157.887,128.547 159.5,125.5 Z"/></g>
<g><path style="opacity:0.588" fill="#000000" d="M 183.5,125.5 C 186.045,125.151 188.045,125.984 189.5,128C 187,128.833 186.833,130 189,131.5C 190.316,135.128 189.149,137.461 185.5,138.5C 182.649,137.988 181.316,136.321 181.5,133.5C 187.069,135.162 187.569,134.495 183,131.5C 182.322,129.402 182.489,127.402 183.5,125.5 Z"/></g>
</svg>
